<svg width="48" height="32" viewBox="0 0 48 32" fill="none" xmlns="http://www.w3.org/2000/svg">
<path d="M22.9173 15.672V11.686L25.3944 11.6851C25.6673 11.6775 25.9387 11.7276 26.1907 11.832C26.4427 11.9365 26.6694 12.0929 26.8559 12.291C27.0437 12.4724 27.193 12.6893 27.295 12.929C27.3969 13.1686 27.4495 13.4262 27.4495 13.6863C27.4495 13.9465 27.3969 14.204 27.295 14.4437C27.193 14.6834 27.0437 14.9003 26.8559 15.0817C26.667 15.2756 26.4395 15.4283 26.1879 15.53C25.9362 15.6317 25.6659 15.68 25.3944 15.672H22.9173Z" fill="#454443"/>
<path d="M30.4467 19.3073C30.4457 19.494 30.4896 19.6782 30.5749 19.8446C30.6601 20.011 30.7841 20.1548 30.9366 20.2639C31.2633 20.5191 31.6688 20.6543 32.0843 20.6466C32.7076 20.6455 33.3051 20.3992 33.7458 19.9614C34.2351 19.5041 34.4798 18.9674 34.4798 18.3515C34.0192 17.9871 33.377 17.8049 32.5531 17.8049C31.9531 17.8049 31.4528 17.9485 31.0522 18.2358C30.6476 18.5274 30.4467 18.8818 30.4467 19.3073Z" fill="#454443"/>
<path fill-rule="evenodd" clip-rule="evenodd" d="M4 0C1.79086 0 0 1.79086 0 4V28C0 30.2091 1.79086 32 4 32H44C46.2091 32 48 30.2091 48 28V4C48 1.79086 46.2091 0 44 0H4ZM22.9173 21.6989V17.0751L25.3577 17.0742C26.3638 17.0748 27.2094 16.7508 27.8944 16.1021C28.2365 15.7979 28.5083 15.4238 28.6912 15.0055C28.8741 14.5872 28.9638 14.1345 28.954 13.6786C28.9608 13.2251 28.8698 12.7754 28.687 12.3597C28.5042 11.9441 28.234 11.5721 27.8944 11.2688C27.5582 10.9458 27.161 10.6922 26.7256 10.5226C26.2902 10.3529 25.8253 10.2705 25.3577 10.2802H21.4402V21.6989H22.9173ZM32.3577 13.6312C33.4495 13.6312 34.3112 13.9209 34.9431 14.5004C35.5749 15.0798 35.8905 15.8743 35.8899 16.8838V21.6989H34.477V20.6147H34.4128C33.8012 21.5076 32.9877 21.954 31.9724 21.954C31.1057 21.954 30.3806 21.6989 29.7971 21.1887C29.5171 20.9545 29.2933 20.6612 29.1418 20.3302C28.9904 19.9993 28.9153 19.6389 28.9219 19.2754C28.9219 18.467 29.2296 17.824 29.8449 17.3466C30.4601 16.8692 31.2816 16.6299 32.3091 16.6287C33.1862 16.6287 33.9085 16.7881 34.4761 17.107V16.7717C34.4778 16.5239 34.4239 16.2789 34.3183 16.0543C34.2128 15.8297 34.0583 15.6313 33.866 15.4734C33.4754 15.1235 32.9663 14.9325 32.4403 14.9386C31.6152 14.9386 30.9623 15.2842 30.4816 15.9754L29.1806 15.1618C29.8962 14.1414 30.9553 13.6312 32.3577 13.6312ZM39.0678 25.1428L44 13.8863H42.3917L40.1119 19.4986H40.0798L37.7357 13.8863H36.1302L39.3734 21.2042L37.5431 25.1428H39.0678ZM16.9484 16.0784C16.949 15.6314 16.9109 15.1851 16.8347 14.7446H10.6053V17.271H14.1732C14.1002 17.6745 13.9457 18.0592 13.7189 18.4018C13.4922 18.7444 13.1979 19.0378 12.8539 19.2645C12.2613 19.6635 11.498 19.8923 10.6053 19.8923C8.88236 19.8923 7.41996 18.7388 6.89702 17.1845C6.62056 16.37 6.62051 15.488 6.89697 14.6735C7.41991 13.1192 8.88236 11.9657 10.6053 11.9657C11.5473 11.9505 12.4576 12.3039 13.1393 12.9497L15.0246 11.0774C13.8291 9.96233 12.2453 9.35012 10.6053 9.36914C9.38091 9.3692 8.18062 9.70721 7.13844 10.3454C6.09626 10.9837 5.25322 11.897 4.70343 12.9834C4.24093 13.8974 4 14.9061 4 15.929C4 16.9519 4.24087 17.9606 4.70337 18.8746C5.25316 19.961 6.09626 20.8744 7.13844 21.5126C8.18062 22.1508 9.38091 22.4888 10.6053 22.4889C12.3879 22.4889 13.8888 21.9076 14.9833 20.9054C16.2301 19.7638 16.9484 18.0746 16.9484 16.0784Z" fill="#454443"/>
</svg>
