<svg width="48" height="32" viewBox="0 0 48 32" fill="none" xmlns="http://www.w3.org/2000/svg">
<path d="M35.8341 17.3924C35.8956 18.2673 36.6541 18.9267 37.5289 18.8662C37.5635 18.8662 37.5981 18.8652 37.6327 18.8623C38.5075 18.8018 39.167 18.0423 39.1064 17.1675C39.0459 16.2927 38.2864 15.6332 37.4116 15.6938C37.377 15.6938 37.3424 15.6957 37.3087 15.6976C36.433 15.7591 35.7735 16.5176 35.8341 17.3924Z" fill="#454443"/>
<path d="M18.3849 18.8535C17.5082 18.8573 16.7939 18.1498 16.7901 17.2721C16.7862 16.3944 17.4947 15.6811 18.3715 15.6772C19.2482 15.6734 19.9624 16.3819 19.9663 17.2586V17.2615C19.9375 18.1248 19.2472 18.8198 18.3849 18.8535Z" fill="#454443"/>
<path fill-rule="evenodd" clip-rule="evenodd" d="M4 0C1.79086 0 0 1.79086 0 4V28C0 30.2091 1.79086 32 4 32H44C46.2091 32 48 30.2091 48 28V4C48 1.79086 46.2091 0 44 0H4ZM9.26199 20.3428H11.7538L8.97359 16.5187C10.2973 15.1843 11.0347 13.378 11.0241 11.4986H9.05915C9.0678 13.1098 8.31508 14.6296 7.02978 15.6006L6.25014 16.188L9.26199 20.3428ZM6.00824 11.4986H4.00003V20.3429H6.00824V11.4986ZM12.3548 11.4986H14.2564V20.3429H12.3548V11.4986ZM33.4802 16.4405V20.3175H31.6643V17.0913C31.6643 16.2049 31.2048 15.7243 30.4146 15.7243C30.3511 15.7137 30.2857 15.7137 30.2223 15.7243C29.5167 15.7887 28.9937 16.4078 29.0476 17.1134V20.3281H27.221V14.2073H29.0264V14.9014C29.4705 14.3255 30.1694 14.0054 30.8952 14.0468C30.9221 14.0468 30.9515 14.0441 30.9808 14.0415C31.0101 14.0388 31.0394 14.0362 31.0663 14.0362C32.3968 14.0343 33.4774 15.11 33.4802 16.4405ZM39.1208 14.6161V14.221L40.9368 14.2201V20.3408H39.1208V19.9457C38.0297 20.6869 36.5964 20.6869 35.5043 19.9457C34.0325 18.9469 33.649 16.9445 34.6478 15.4727C35.6466 14.0009 37.649 13.6173 39.1208 14.6161ZM44 19.3313V19.3024C43.9981 18.6795 43.4905 18.1757 42.8676 18.1777H42.858C42.2245 18.1748 41.7073 18.6852 41.7044 19.3197C41.7005 19.9532 42.2129 20.4704 42.8464 20.4733C43.4799 20.4762 43.9971 19.9648 44 19.3313ZM26.3763 16.0008V14.2281C25.6918 14.2156 25.0372 14.5088 24.5921 15.0289V14.2281H22.7444V20.3479H24.6036V17.4851C24.6036 16.5237 25.6399 16.0008 26.3552 16.0008H26.3763ZM19.9769 14.2073V14.6025C19.4491 14.2372 18.8242 14.0401 18.1821 14.0362C16.4007 14.067 14.9808 15.5359 15.0126 17.3172C15.0424 19.0553 16.444 20.4579 18.1821 20.4877C18.8233 20.4877 19.4481 20.2945 19.9769 19.9321V20.3272H21.7928V14.2064L19.9769 14.2073Z" fill="#454443"/>
</svg>
