<svg width="48" height="32" viewBox="0 0 48 32" fill="none" xmlns="http://www.w3.org/2000/svg">
<path fill-rule="evenodd" clip-rule="evenodd" d="M4 0C1.79086 0 0 1.79086 0 4V28C0 30.2091 1.79086 32 4 32H44C46.2091 32 48 30.2091 48 28V4C48 1.79086 46.2091 0 44 0H4ZM31.6425 27.9745C38.2007 27.952 43.4172 22.5493 43.3066 15.8939C43.1965 9.2719 37.8006 3.87207 31.2424 3.89453C28.4741 3.90401 25.9526 4.8826 23.9689 6.49481L24.0312 6.54449L23.6781 6.5457C21.6474 4.96525 19.1084 4.01613 16.3575 4.02555C9.79926 4.04802 4.58284 9.45074 4.69344 16.1062C4.80404 22.7616 10.1994 28.128 16.7576 28.1055C19.5259 28.0961 22.0474 27.1175 24.0311 25.5053L23.9679 25.4556L24.3219 25.4544C26.3526 27.0348 28.8916 27.9839 31.6425 27.9745Z" fill="#454443"/>
</svg>
