<svg width="48" height="32" viewBox="0 0 48 32" fill="none" xmlns="http://www.w3.org/2000/svg">
<path d="M9.15976 13.9099C9.09445 14.3657 8.9254 14.665 8.65201 14.8083C8.37855 14.9517 7.98798 15.0231 7.48029 15.0231L6.83578 15.0426L7.16785 12.9529C7.19376 12.8098 7.27834 12.7382 7.42167 12.7382H7.79284C8.31337 12.7382 8.69116 12.8132 8.92552 12.9627C9.15976 13.1125 9.2379 13.4283 9.15976 13.9099Z" fill="#454443"/>
<path d="M36.54 18.2068C37.0086 18.2068 37.409 18.0442 37.741 17.7187C38.073 17.3933 38.239 16.9961 38.2391 16.5275C38.2391 16.1498 38.1183 15.8536 37.8777 15.6387C37.6366 15.424 37.3338 15.3166 36.9696 15.3166C36.4879 15.3166 36.0839 15.4825 35.7588 15.8145C35.4332 16.1465 35.2704 16.5537 35.2704 17.0351C35.2704 17.4001 35.3876 17.6865 35.6221 17.8944C35.8565 18.1028 36.1622 18.2068 36.54 18.2068Z" fill="#454443"/>
<path d="M15.5554 17.7283C15.2234 18.0477 14.8163 18.2068 14.3349 18.2068C13.9571 18.2068 13.6544 18.1028 13.4267 17.8944C13.1988 17.6865 13.0849 17.4001 13.0849 17.0351C13.0849 16.5537 13.2476 16.1465 13.5732 15.8145C13.8985 15.4825 14.3021 15.3165 14.784 15.3165C15.1484 15.3165 15.4511 15.424 15.6922 15.6387C15.9329 15.8536 16.0535 16.1498 16.0535 16.5275C16.0534 17.0092 15.8875 17.4097 15.5554 17.7283Z" fill="#454443"/>
<path d="M29.6657 15.0229C30.2384 15.0229 30.6682 14.9253 30.9546 14.73C31.2409 14.5346 31.3842 14.1637 31.3842 13.6167C31.3842 13.3564 31.3062 13.1578 31.1499 13.021C30.9937 12.8844 30.8307 12.8032 30.6617 12.777C30.4922 12.751 30.2644 12.738 29.9779 12.738H29.6265C29.4831 12.738 29.3985 12.8097 29.3727 12.9527L29.0407 15.0425L29.6657 15.0229Z" fill="#454443"/>
<path fill-rule="evenodd" clip-rule="evenodd" d="M0 4C0 1.79086 1.79086 0 4 0H44C46.2091 0 48 1.79086 48 4V28C48 30.2091 46.2091 32 44 32H4C1.79086 32 0 30.2091 0 28V4ZM10.7708 11.5174C10.2695 11.1728 9.61522 11 8.8081 11H5.6834C5.43597 11 5.29927 11.1238 5.2733 11.371L4.00398 19.3389C3.99079 19.4171 4.01037 19.4887 4.06254 19.5537C4.11442 19.6189 4.17966 19.6513 4.2578 19.6513H5.74202C6.00234 19.6513 6.14542 19.5279 6.17169 19.2804L6.52316 17.1322C6.536 17.0281 6.58178 16.9435 6.65992 16.8783C6.738 16.8132 6.83566 16.7707 6.95284 16.7512C7.07001 16.7319 7.18051 16.7221 7.28485 16.7221C7.3889 16.7221 7.51252 16.7287 7.65596 16.7417C7.79905 16.7546 7.89026 16.761 7.92936 16.761C9.04897 16.761 9.92777 16.4455 10.5658 15.8139C11.2036 15.1825 11.5228 14.3071 11.5228 13.1871C11.5228 12.419 11.2719 11.8626 10.7708 11.5174ZM42.3009 11H43.7459C43.915 11 43.9999 11.0913 44 11.2737V11.2931L42.7307 19.2806C42.7042 19.5282 42.5675 19.6516 42.3205 19.6516H41.0314C40.9533 19.6516 40.8879 19.6223 40.8362 19.5638C40.7839 19.5052 40.7579 19.4437 40.7579 19.3782L40.7775 19.3392L42.0469 11.215C42.0727 11.0716 42.1572 11 42.3009 11ZM26.2869 14.1444C26.2868 14.0795 26.2607 14.0176 26.209 13.9591C26.1567 13.9006 26.0981 13.8711 26.0332 13.8711H24.5294C24.3859 13.8711 24.2687 13.9365 24.1778 14.0664L22.1077 17.113L21.2484 14.1837C21.183 13.9755 21.04 13.8711 20.8188 13.8711H19.3539C19.2886 13.8711 19.2301 13.9005 19.1783 13.9591C19.1261 14.0176 19.1002 14.0797 19.1002 14.1445C19.1002 14.1707 19.2271 14.5546 19.481 15.2968C19.7348 16.0391 20.0082 16.8398 20.3011 17.6992C20.5941 18.5583 20.747 19.0143 20.7601 19.0659C19.6924 20.5243 19.1588 21.3055 19.1588 21.4095C19.1588 21.5789 19.2433 21.6634 19.4127 21.6634H20.9164C21.0596 21.6634 21.1767 21.5984 21.268 21.4682L26.2481 14.2811C26.2739 14.2553 26.2869 14.21 26.2869 14.1444ZM38.8053 13.8712H40.2896C40.3676 13.8712 40.4326 13.9038 40.4849 13.9688C40.5369 14.034 40.5564 14.1054 40.5436 14.1836L39.7427 19.2808C39.7038 19.5284 39.5604 19.6518 39.3134 19.6518H37.9657C37.7962 19.6518 37.7118 19.548 37.7118 19.3394C37.7118 19.2878 37.7246 19.2094 37.751 19.105C37.7767 19.0009 37.79 18.9425 37.79 18.9295C37.5682 19.19 37.2626 19.3982 36.872 19.5544C36.4814 19.7105 36.0974 19.7888 35.7199 19.7888C34.9644 19.7888 34.3624 19.5612 33.9132 19.1052C33.4641 18.6497 33.2396 18.0378 33.2396 17.2695C33.2396 16.3192 33.5682 15.4922 34.2257 14.7891C34.8831 14.0861 35.6806 13.7345 36.618 13.7345C37.5165 13.7345 38.1345 13.9952 38.4735 14.5158C38.5126 14.0861 38.6228 13.8712 38.8053 13.8712ZM18.104 13.8712H16.6198C16.4372 13.8712 16.3268 14.0861 16.2877 14.5158C15.9362 13.9952 15.3177 13.7345 14.4324 13.7345C13.495 13.7345 12.6974 14.0861 12.04 14.7891C11.3824 15.4922 11.0538 16.3192 11.0538 17.2695C11.0538 18.0378 11.2784 18.6497 11.7276 19.1052C12.1768 19.5612 12.7788 19.7888 13.5341 19.7888C13.8984 19.7888 14.2762 19.7105 14.6667 19.5544C15.0573 19.3982 15.3698 19.19 15.6041 18.9295C15.5519 19.0856 15.526 19.2223 15.526 19.3394C15.526 19.548 15.6106 19.6518 15.7799 19.6518H17.1274C17.3746 19.6518 17.518 19.5284 17.5571 19.2808L18.3577 14.1836C18.3706 14.1054 18.3511 14.034 18.2992 13.9688C18.2471 13.9038 18.1821 13.8712 18.104 13.8712ZM30.9937 11C31.801 11 32.455 11.1728 32.9563 11.5174C33.4575 11.8626 33.7082 12.419 33.7082 13.1871C33.7082 14.3071 33.3892 15.1825 32.7512 15.8138C32.1132 16.4455 31.2345 16.761 30.1147 16.761C30.0759 16.761 29.9844 16.7546 29.8413 16.7416C29.698 16.7287 29.5744 16.7221 29.4703 16.7221C29.3659 16.7221 29.2554 16.7319 29.1384 16.7512C29.0211 16.7707 28.9235 16.8132 28.8454 16.8783C28.7671 16.9435 28.7216 17.0281 28.7086 17.1322L28.3571 19.3975C28.3049 19.5668 28.2008 19.6513 28.0445 19.6513H26.4432C26.3651 19.6513 26.2996 19.6189 26.248 19.5537C26.1958 19.4887 26.1762 19.4171 26.1894 19.3388L27.4588 11.371C27.4847 11.1237 27.628 11 27.8884 11H30.9937Z" fill="#454443"/>
</svg>
