<svg width="48" height="32" viewBox="0 0 48 32" fill="none" xmlns="http://www.w3.org/2000/svg">
<path fill-rule="evenodd" clip-rule="evenodd" d="M22.108 21.2944H23.7917C24.9712 21.2944 26.1414 20.9998 26.1414 19.5728C26.1414 18.1502 24.9383 17.8804 23.8674 17.8804H19.5557L17.8393 19.5643L16.1792 17.8804H10.752V23.0174H16.097L17.8237 21.3169L19.4853 23.0174H22.108V21.2944ZM22.079 18.9328H23.8384C24.3256 18.9328 24.6636 19.1135 24.6639 19.5627C24.6636 20.0071 24.3412 20.2411 23.8228 20.2411H22.079V18.9328ZM12.096 19.8668V18.9328H15.479L16.955 20.4299L15.4136 21.9369H12.096V20.9149H15.0583V19.8668H12.096ZM20.759 18.4067V22.5251L18.6873 20.4328L20.759 18.4067Z" fill="#454443"/>
<path fill-rule="evenodd" clip-rule="evenodd" d="M32.1115 21.9991C32.106 21.5463 32.0785 21.3122 31.8879 21.0615C31.7726 20.9118 31.5272 20.7311 31.227 20.6303C31.5822 20.5017 32.1833 20.0835 32.1834 19.2636C32.1834 18.6776 31.9154 18.3569 31.4895 18.1229C31.0467 17.9081 30.5493 17.8805 29.8659 17.8805H26.7507V23.0175H28.1065V21.1414H29.5485C30.041 21.1414 30.3416 21.1853 30.5386 21.3693C30.7644 21.5842 30.7604 21.9764 30.7573 22.278C30.757 22.3115 30.7567 22.3439 30.7567 22.3748V23.0175H32.1115V21.9991ZM29.82 18.9329C30.0602 18.9329 30.3008 18.9376 30.4638 19.0257C30.6387 19.1089 30.7434 19.268 30.7434 19.4877C30.7434 19.7074 30.6387 19.8845 30.4638 19.9807C30.2835 20.0781 30.0603 20.0866 29.7978 20.0866H28.1584V18.9329H29.82Z" fill="#454443"/>
<path d="M34.302 18.9428H37.4619V17.8804H32.9583V23.0174H37.4619V21.9515L34.302 21.9469V20.9248H37.3846V19.8767H34.302V18.9428Z" fill="#454443"/>
<path d="M38.3012 23.0174H40.9293C42.2901 23.0174 43.0491 22.5015 43.0492 21.3963C43.0492 20.8677 42.9081 20.5553 42.6455 20.308C42.3399 20.0265 41.8368 19.911 41.1046 19.895L40.3781 19.877C40.1482 19.877 39.9954 19.8638 39.853 19.8188C39.6833 19.7618 39.5578 19.6299 39.5578 19.4361C39.5578 19.2733 39.6126 19.1499 39.7606 19.0667C39.8962 18.9822 40.0557 18.9737 40.3011 18.9737H42.7765V17.8805H40.0712C38.6566 17.8805 38.1419 18.6648 38.1419 19.4099C38.1419 20.9288 39.5219 20.9631 40.7325 20.9932C40.8174 20.9953 40.9015 20.9974 40.9842 21C41.2191 21 41.3615 21.0355 41.4648 21.1138C41.5572 21.185 41.6295 21.3039 41.6295 21.4537C41.6295 21.5936 41.5627 21.7091 41.47 21.7885C41.3563 21.885 41.1748 21.9158 40.9188 21.9158H38.3012V23.0174Z" fill="#454443"/>
<path fill-rule="evenodd" clip-rule="evenodd" d="M4 0C1.79086 0 0 1.79086 0 4V14.1298H1.46551L1.98934 12.9842H4.79887L5.31735 14.1298H8.06202V10.104L10.0237 14.1298H11.2085L13.1652 10.1075L13.1703 14.1298H14.5534V8.99399H12.3067L10.6844 12.478L8.91853 8.99399H6.71608V13.8565L4.42127 8.99399H2.41636L0 14.1298L6.15398e-05 11.4056L1.63413 8H5.15297L5.60634 8.84592V8H9.7324L10.6351 9.85007L11.514 8H24.614C25.2092 8 25.7447 8.10097 26.1378 8.41826V8H29.7236V8.41826C30.3412 8.11044 31.1055 8 31.9754 8H37.1715L37.6535 8.84592V8H41.5002L42.0251 8.84592V8H45.7738V15.1626H41.9857L41.2701 14.0791V15.1626H36.5431L36.0298 14.0219H34.8659L34.3409 15.1626H31.8879C30.9253 15.1626 30.194 14.956 29.7237 14.7267V15.1626H23.8929V13.5372C23.8929 13.3077 23.8485 13.2949 23.6957 13.2901H23.4775L23.4827 15.1626H12.2092V14.2775L11.8039 15.1666H9.44907L9.0442 14.2908V15.163H4.50791L3.98944 14.0222H2.82548L2.30565 15.163H0V28C0 30.2091 1.79086 32 4 32H44C46.2091 32 48 30.2091 48 28V20.3945C47.9943 20.3878 47.9887 20.3812 47.9831 20.3745C47.9519 20.3372 47.9212 20.3006 47.8748 20.2675C47.5745 19.986 47.0816 19.8704 46.3438 19.8538L45.6123 19.8361C45.3875 19.8361 45.2348 19.8229 45.0924 19.7779C44.9175 19.7208 44.7973 19.5889 44.7973 19.3952C44.7973 19.2322 44.852 19.1089 44.9944 19.0256C45.1318 18.9413 45.295 18.9328 45.5404 18.9328L48 18.9329V4C48 1.79086 46.2091 0 44 0H4ZM2.49642 11.9182L3.41466 9.87076L4.33843 11.9182H2.49642ZM43.5605 22.987H46.1664C47.0306 22.987 47.6695 22.7662 47.9971 22.3302V23.6655C47.4565 23.9031 46.7459 23.9959 46.0184 23.9959H42.5219V23.537C42.1169 23.8331 41.3853 23.9959 40.6854 23.9959H29.6624V22.3394C29.6624 22.1364 29.6403 22.1278 29.417 22.1278H29.242V23.9963H25.6135V22.0618C25.006 22.3007 24.3176 22.3222 23.7339 22.3137H23.3013V24L18.9022 23.9965L17.8206 22.8818L16.6726 23.9965H9.53584V16.8281H16.8098L17.8535 17.9251L18.9676 16.8281H23.8371C24.3998 16.8281 25.3236 16.8818 25.7388 17.2477V16.8281H30.0898C30.4984 16.8281 31.3843 16.9031 31.9092 17.2477V16.8281H38.5056V17.2477C38.8335 16.9612 39.5268 16.8281 40.1174 16.8281H43.8112V17.2477C44.1988 16.9923 44.7464 16.8281 45.5 16.8281H47.9973V17.8502H45.3094C43.8934 17.8502 43.3733 18.6344 43.3733 19.3794C43.3733 20.8988 44.7541 20.9328 45.9691 20.9627C46.054 20.9648 46.1381 20.9669 46.2209 20.9694C46.456 20.9694 46.5987 21.0051 46.6964 21.0835C46.796 21.1547 46.8613 21.2735 46.8613 21.4232C46.8624 21.5504 46.8044 21.6721 46.7018 21.7581C46.5933 21.8547 46.4131 21.8854 46.1558 21.8854H43.5605V22.987Z" fill="#454443"/>
<path fill-rule="evenodd" clip-rule="evenodd" d="M32.0231 8.99369C31.0932 8.99369 30.41 9.18272 29.9739 9.59262C29.3937 10.1429 29.2464 10.8391 29.2467 11.6009C29.2467 12.5348 29.4932 13.1255 29.9675 13.5615C30.4378 13.9976 31.2682 14.1296 31.924 14.1296H33.5031L34.0126 12.984H36.8157L37.3407 14.1296H40.0889V10.2749L42.6466 14.1296H44.5588V8.99393H43.1766V12.5707L40.8046 8.99393H38.7501V13.8515L36.4655 8.99387H34.4437L32.542 13.0327H31.9358C31.5807 13.0327 31.203 12.971 30.9953 12.7678C30.7446 12.5087 30.6243 12.112 30.6243 11.5617C30.6243 11.0234 30.7821 10.6147 31.0122 10.3985C31.2799 10.1608 31.5583 10.0941 32.0505 10.0941H33.3294V8.99369H32.0231ZM34.494 11.9182L35.4227 9.87076L36.3565 11.9182H34.494Z" fill="#454443"/>
<path d="M28.5752 8.99375H27.1984V14.1296H28.5752V8.99375Z" fill="#454443"/>
<path fill-rule="evenodd" clip-rule="evenodd" d="M24.0945 8.99375H20.9909L20.9911 14.1296H22.3405V12.2615H23.789C24.2749 12.2615 24.5755 12.3008 24.7726 12.4814C24.9932 12.7033 24.9893 13.0847 24.9863 13.3841C24.9859 13.4178 24.9856 13.4505 24.9856 13.4818L24.9907 14.1295H26.3517V13.1206C26.3517 12.6619 26.3188 12.4338 26.1283 12.1783C26.0081 12.0287 25.7558 11.8481 25.4607 11.7458C25.8105 11.6187 26.4113 11.1958 26.4113 10.3768C26.4113 9.80408 26.1554 9.46915 25.7286 9.23975C25.2923 9.0104 24.7839 8.99375 24.0945 8.99375ZM24.9837 10.6512C24.9837 10.8757 24.8807 11.0564 24.7056 11.1395C24.5201 11.2419 24.3007 11.2454 24.0382 11.2454H22.3989V10.1046H24.0605C24.2957 10.1046 24.541 10.1142 24.7004 10.1972C24.8754 10.272 24.9837 10.4313 24.9837 10.6512Z" fill="#454443"/>
<path d="M20.059 8.99375H15.5512V14.1295H20.059V13.0674H16.9007V12.0417H19.9831V10.989H16.9007V10.0632H20.059V8.99375Z" fill="#454443"/>
</svg>
