<svg width="48" height="32" viewBox="0 0 48 32" fill="none" xmlns="http://www.w3.org/2000/svg">
<path d="M29.1555 19.2384C29.1555 19.9768 29.7955 20.4647 30.8039 20.4647V20.4737C30.8413 20.4769 30.8787 20.4802 30.9169 20.4818C32.0505 20.5282 33.0077 19.6458 33.054 18.5122V17.8242L30.9527 17.9568C29.7727 18.0275 29.1555 18.4732 29.1555 19.2384Z" fill="#454443"/>
<path d="M22.3342 11.2298H20.1547V16.066H22.3269C23.9753 16.066 24.9129 15.1837 24.9129 13.6442C24.9129 12.1048 23.9753 11.2298 22.3342 11.2298Z" fill="#454443"/>
<path fill-rule="evenodd" clip-rule="evenodd" d="M4 0C1.79086 0 0 1.79086 0 4V28C0 30.2091 1.79086 32 4 32H44C46.2091 32 48 30.2091 48 28V4C48 1.79086 46.2091 0 44 0H4ZM40.6796 22.2929C39.9217 24.4251 39.054 25.1285 37.2104 25.1285V25.1383C36.9705 25.1391 36.7298 25.1237 36.4915 25.0911V23.6273C36.6086 23.6428 36.8973 23.6582 37.0462 23.6582C37.826 23.7152 38.5189 23.1646 38.6401 22.3929L38.8116 21.8537L35.6084 12.9896H37.5853L39.8119 20.185H39.8509L42.0775 12.9798H44L40.6796 22.2929ZM33.0858 20.3549C32.5108 21.3446 31.4406 21.9407 30.2964 21.9098L30.2956 21.9188C28.5374 21.9188 27.3111 20.8722 27.3127 19.2872C27.3127 17.7242 28.5 16.8256 30.6957 16.693L33.054 16.5523V15.8806C33.054 14.8885 32.4059 14.3493 31.2495 14.3493C30.4265 14.2599 29.6637 14.7893 29.4604 15.5919H27.7567C27.8112 14.0135 29.2962 12.8652 31.304 12.8652C33.4688 12.8652 34.8748 13.998 34.8748 15.7562V21.8187H33.1248V20.3549H33.0858ZM18.264 21.8163V9.63589L22.8351 9.64808C22.9595 9.64239 23.0831 9.64158 23.2076 9.64727C25.3163 9.74892 26.9435 11.5396 26.8427 13.6483C26.8475 13.7695 26.8467 13.8898 26.8402 14.011C26.7256 16.1433 24.9048 17.7787 22.7725 17.664H20.1547V21.8163H18.264ZM10.2372 12.2988C10.7242 12.1076 11.3272 11.8707 11.9884 11.9088L11.99 11.9015C12.9585 11.9357 13.8539 12.422 14.4118 13.2141C13.5367 13.7532 12.9984 14.7014 12.9821 15.7293C12.9878 16.8947 13.6799 17.9462 14.7476 18.413C14.5386 19.0774 14.2337 19.7076 13.8417 20.2834C13.2855 21.0966 12.7146 21.8944 11.8087 21.9098C11.3811 21.9178 11.0917 21.7931 10.7907 21.6636C10.4757 21.5279 10.1481 21.3869 9.63654 21.3869C9.1013 21.3869 8.7584 21.5325 8.42841 21.6725C8.14171 21.7942 7.86476 21.9117 7.47988 21.9261C6.60567 21.9578 5.94045 21.0673 5.38584 20.2541C4.25302 18.6138 3.38613 15.6293 4.55798 13.6133C5.10853 12.6163 6.1462 11.9861 7.28471 11.9568C7.77404 11.9476 8.24309 12.1333 8.65148 12.2951C8.96047 12.4174 9.23475 12.5261 9.45682 12.5261C9.65865 12.5261 9.92392 12.4219 10.2372 12.2988ZM9.34134 11.7625C10.1066 11.7763 10.8344 11.4323 11.3102 10.8329L11.3085 10.8305C11.8038 10.2417 12.0502 9.48381 11.9965 8.71613C11.2402 8.78688 10.5408 9.14795 10.0448 9.72371C9.54628 10.2816 9.29255 11.0159 9.34134 11.7625Z" fill="#454443"/>
</svg>
